<?xml version="1.0" standalone="no"?>
<!DOCTYPE svg PUBLIC "-//W3C//DTD SVG 20010904//EN"
 "http://www.w3.org/TR/2001/REC-SVG-20010904/DTD/svg10.dtd">
<svg version="1.0" xmlns="http://www.w3.org/2000/svg"
 width="512.000000pt" height="512.000000pt" viewBox="0 0 512.000000 512.000000"
 preserveAspectRatio="xMidYMid meet">
<metadata>
Created by potrace 1.14, written by Peter Selinger 2001-2017
</metadata>
<g transform="translate(0.000000,512.000000) scale(0.100000,-0.100000)"
fill="#000000" stroke="none">
<path d="M769 3185 c-26 -14 -50 -60 -45 -87 9 -54 67 -92 120 -77 43 12 66
44 66 89 0 70 -76 110 -141 75z"/>
<path d="M2 2686 l3 -490 73 -1 c41 0 76 4 79 8 3 5 5 98 5 208 -1 180 1 199
16 200 9 0 97 1 195 2 l177 0 0 69 0 68 -194 0 -194 0 -1 139 c0 102 3 140 12
143 6 2 112 3 235 2 195 0 222 1 223 15 3 46 -1 114 -6 120 -4 3 -146 6 -316
6 l-309 1 2 -490z"/>
<path d="M1780 2688 l0 -488 75 0 c71 0 75 1 76 23 0 12 0 101 0 197 -1 207
12 270 64 320 60 58 171 69 233 23 22 -17 61 -72 62 -88 0 -3 1 -7 1 -10 5
-20 7 -71 8 -258 l1 -212 73 0 72 1 0 259 0 260 -28 58 c-47 94 -136 145 -256
145 -81 0 -137 -19 -190 -64 l-41 -36 0 180 0 179 -75 -1 -75 0 0 -488z"/>
<path d="M2871 3045 l-48 -50 -87 1 c-96 1 -137 -13 -155 -52 -15 -34 -15
-653 0 -687 24 -54 28 -54 496 -53 l433 1 27 28 28 27 3 335 3 334 -30 33 -29
33 -102 1 -101 1 -44 49 -45 49 -150 0 -150 1 -49 -51z m349 -95 l42 -50 103
0 102 0 1 -292 c0 -161 -4 -295 -8 -298 -5 -3 -183 -5 -397 -4 l-388 1 -1 296
-2 297 103 0 103 0 43 50 43 50 107 0 107 0 42 -50z"/>
<path d="M2959 2823 c-230 -118 -152 -456 109 -465 92 -3 182 52 227 141 33
66 30 159 -8 224 -69 117 -209 160 -328 100z m190 -101 c45 -33 64 -68 65
-121 1 -84 -58 -144 -144 -144 -132 -1 -196 156 -101 247 49 47 130 55 180 18z"/>
<path d="M4683 2914 c-177 -36 -275 -169 -270 -367 3 -115 28 -178 97 -248
139 -141 391 -142 525 -2 30 31 79 128 71 141 -3 6 -115 8 -147 3 -3 -1 -13
-17 -22 -36 -38 -80 -151 -109 -254 -65 -51 22 -102 83 -104 125 0 11 -2 29
-4 41 -4 20 -2 20 258 19 144 0 268 1 275 3 17 6 15 97 -4 161 -32 108 -108
185 -214 215 -75 22 -136 25 -207 10z m158 -126 c51 -17 85 -46 104 -88 29
-65 30 -65 -179 -65 l-187 -1 6 26 c26 106 146 166 256 128z"/>
<path d="M749 2910 c-6 -4 -8 -141 -7 -361 l3 -354 73 0 c70 0 72 1 73 25 1
32 1 626 0 665 l-1 30 -66 0 c-36 0 -69 -2 -75 -5z"/>
<path d="M1186 2895 c-78 -32 -123 -77 -141 -140 -39 -140 37 -227 220 -250
182 -24 214 -35 229 -78 30 -85 -86 -146 -215 -113 -54 14 -109 63 -109 96 0
11 -3 20 -7 21 -5 0 -39 2 -77 2 l-68 2 5 -42 c13 -119 143 -203 317 -204 182
-1 309 86 312 214 2 140 -85 199 -326 223 -93 9 -129 26 -140 62 -35 123 225
158 289 39 l20 -37 71 0 72 0 -10 43 c-15 68 -53 113 -126 149 -58 29 -76 33
-161 35 -82 2 -105 -1 -155 -22z"/>
<path d="M3670 2906 c0 -6 21 -63 46 -126 150 -379 224 -573 224 -586 0 -29
-60 -134 -78 -135 -9 -1 -46 -2 -82 -3 l-65 -2 -3 -67 -3 -67 106 0 c130 0
173 17 206 83 12 23 87 206 166 407 79 201 148 374 153 385 12 23 40 105 40
114 0 7 -147 7 -154 0 -5 -5 -74 -197 -144 -401 -26 -76 -50 -134 -54 -130 -4
4 -49 120 -99 257 -50 137 -94 256 -99 265 -10 18 -160 24 -160 6z"/>
</g>
</svg>
